<svg xmlns="http://www.w3.org/2000/svg" viewBox="0 0 427 234.8"><style>.st0{fill:#fff}.st2{fill:#0e1821}</style><g id="ROW_1_-_CTA"><path class="st2" d="M0 0h378.95v234.8H0z"/><path class="st2" d="M366.94 75.35h27.3v80.81h-27.3zM366.94 156.17H427v78.63h-60.06z"/><g><path class="st0" d="M54.11 61.39H27.96L23.1 75.13H7.25L32.73 7.47H50.2l25.19 67.66H58.98l-4.87-13.74zM32.92 47.64h16.41l-8.11-23.38-8.3 23.38zM103.34 75.13V7.47h15.08v53.25h29.2v14.41h-44.28zM196.14 61.39h-26.15l-4.87 13.74h-15.84l25.48-67.66h17.46l25.19 67.66H201l-4.86-13.74zm-21.19-13.75h16.41l-8.11-23.38-8.3 23.38zM246.7 7.47c13.36 0 21.09 7.73 21.09 18.13 0 6.97-4.39 12.69-9.92 14.5 6.11 1.43 12.02 7.06 12.02 15.84 0 11.07-8.4 19.18-21.19 19.18h-27.29V7.47h25.29zm-2.38 27.1c5.25 0 8.68-2.77 8.68-7.35 0-4.39-2.96-7.25-8.88-7.25h-8.02v14.6h8.22zm1.24 28.25c5.82 0 9.35-3.05 9.35-7.92 0-4.68-3.44-7.92-9.35-7.92h-9.45v15.84h9.45zM277.48 75.13V7.47h42.85v14.22h-27.77v12.88h25.19v13.26h-25.19v12.98h27.87v14.31h-42.95zM330.07 75.13V7.47h15.08v53.25h29.2v14.41h-44.28zM13.65 150.7V83.05h43.61v14.31H28.73v14.31h25.1v13.74h-25v25.29H13.65zM93.97 81.61c18.99 0 35.12 13.84 35.12 35.31 0 21.38-16.13 35.21-35.12 35.21-19.09 0-35.21-13.84-35.21-35.21-.01-21.47 16.12-35.31 35.21-35.31zm0 55.64c9.35 0 19.47-6.3 19.47-20.42s-10.12-20.52-19.47-20.52c-9.45 0-19.56 6.39-19.56 20.52s10.11 20.42 19.56 20.42zM156.94 125.51h-5.34v25.19h-15.08V83.05h26.82c13.36 0 21.95 9.16 21.95 21.18 0 9.16-5.06 16.13-13.36 19.09l13.74 27.39h-16.6l-12.13-25.2zm3.53-12.98c6.2 0 9.54-3.44 9.54-8.21 0-5.06-3.34-8.21-9.54-8.21h-8.87v16.41h8.87zM246.44 97.46v53.25h-15.08V97.46h-20.8V83.05h56.78v14.41h-20.9zM313.76 150.7v-26.91h-27.01v26.91h-15.08V83.05h15.08v26.53h27.01V83.05h15.17v67.66h-15.17zM340.12 150.7V83.05h42.85v14.22H355.2v12.88h25.19v13.26H355.2v12.98h27.87v14.31h-42.95zM46.67 179.04c-.48-3.15-3.05-8.49-11.26-8.49-5.63 0-9.26 3.53-9.26 7.25 0 3.25 2 5.63 6.68 6.49l9.07 1.72c12.88 2.39 19.56 10.69 19.56 20.33 0 10.59-8.88 21.38-25 21.38-18.7 0-26.72-12.12-27.67-21.66l13.84-3.34c.57 6.2 4.77 11.64 14.03 11.64 5.92 0 9.54-2.86 9.54-7.06 0-3.44-2.77-5.92-7.25-6.78l-9.26-1.72c-11.45-2.19-18.42-9.83-18.42-19.85 0-12.79 11.26-21.76 24.24-21.76 16.89 0 23.28 10.12 24.72 18.04l-13.56 3.81zM98.85 173.03v53.25H83.78v-53.25h-20.8v-14.41h56.78v14.41H98.85zM144.5 201.09h-5.34v25.19h-15.08v-67.66h26.82c13.36 0 21.95 9.16 21.95 21.18 0 9.16-5.06 16.13-13.36 19.09l13.74 27.39h-16.6l-12.13-25.19zm3.53-12.98c6.2 0 9.54-3.44 9.54-8.21 0-5.06-3.34-8.21-9.54-8.21h-8.88v16.41h8.88zM180.6 226.28v-67.66h42.85v14.22h-27.77v12.88h25.19v13.26h-25.19v12.98h27.87v14.31H180.6zM233.19 226.28v-67.66h42.85v14.22h-27.77v12.88h25.19v13.26h-25.19v12.98h27.86v14.31h-42.94zM315.34 173.03v53.25h-15.08v-53.25h-20.8v-14.41h56.78v14.41h-20.9zM374.58 179.04c-.48-3.15-3.05-8.49-11.26-8.49-5.63 0-9.26 3.53-9.26 7.25 0 3.25 2 5.63 6.68 6.49l9.07 1.72c12.88 2.39 19.56 10.69 19.56 20.33 0 10.59-8.88 21.38-25 21.38-18.7 0-26.72-12.12-27.67-21.66l13.84-3.34c.57 6.2 4.77 11.64 14.03 11.64 5.92 0 9.54-2.86 9.54-7.06 0-3.44-2.77-5.92-7.25-6.78l-9.26-1.72c-11.45-2.19-18.42-9.83-18.42-19.85 0-12.79 11.26-21.76 24.24-21.76 16.89 0 23.28 10.12 24.72 18.04l-13.56 3.81zM404.9 207.58c5.34 0 9.83 4.39 9.83 9.73 0 5.25-4.48 9.83-9.83 9.83-5.34 0-9.73-4.58-9.73-9.83 0-5.34 4.39-9.73 9.73-9.73z"/></g></g></svg>